<?xml version="1.0" encoding="utf-8"?>
<!-- Generator: Adobe Illustrator 26.0.1, SVG Export Plug-In . SVG Version: 6.00 Build 0)  -->
<svg version="1.1" id="Capa_1" xmlns="http://www.w3.org/2000/svg" xmlns:xlink="http://www.w3.org/1999/xlink" x="0px" y="0px"
	 viewBox="0 0 1074 309.9" style="enable-background:new 0 0 1074 309.9;" xml:space="preserve">
<style type="text/css">
	.st0{fill:#F9B737;}
	.st1{font-family:'TechnoBoardRegular';}
	.st2{font-size:276.03px;}
	.st3{fill:#EC6D54;}
	.st4{fill:#FFFFFF;}
	.st5{fill:#454545;}
</style>
<g>
	<g id="Capa_1_00000008151262232591335180000004932908978116338855_">
		
			<image style="overflow:visible;opacity:0.75;enable-background:new    ;" width="3101" height="1259" xlink:href="54F6358C.png"  transform="matrix(0.24 0 0 0.24 329.73 5.88)">
		</image>
		<text transform="matrix(1 0 0 1 336.8 247.56)" class="st0 st1 st2">JCOIN</text>
		<g id="bitcoin-coin-bitcoin-coin">
			<path id="bitcoin-coin-label" class="st3" d="M155,310c85.6,0,155-69.4,155-155S240.6,0,155,0S0,69.4,0,155S69.4,310,155,310
				L155,310z"/>
			<g id="bitcoin-coin-bitcoin-coin-2">
				<path class="st4" d="M241.7,155c0,47.9-38.9,86.8-86.8,86.8S68.2,202.9,68.2,155s38.9-86.8,86.8-86.8c0,0,0,0,0,0
					C202.9,68.2,241.7,107,241.7,155z"/>
				<path class="st5" d="M155,244.8c-49.6,0-89.9-40.2-89.9-89.9c0-49.6,40.2-89.9,89.9-89.9c49.6,0,89.9,40.2,89.9,89.9l0,0
					C244.8,204.6,204.6,244.8,155,244.8z M155,71.3c-46.2,0-83.7,37.5-83.7,83.7c0,46.2,37.5,83.7,83.7,83.7
					c46.2,0,83.7-37.5,83.7-83.7c0,0,0,0,0,0C238.6,108.8,201.1,71.3,155,71.3L155,71.3z"/>
				<path class="st0" d="M221.6,155c0,36.8-29.8,66.6-66.6,66.6c-36.8,0-66.6-29.8-66.6-66.6c0-36.8,29.8-66.6,66.6-66.7
					c0,0,0,0,0,0C191.8,88.3,221.6,118.2,221.6,155L221.6,155z"/>
				<path class="st5" d="M166.4,200.1H133c-1.7,0-3.1-1.4-3.1-3.1v-78c0-1.7,1.4-3.1,3.1-3.1c0,0,0,0,0,0h33.3
					c11.3,0,18.9,10.9,18.9,21.1c-0.1,6.6-3.3,12.8-8.5,16.8c9.2,3.5,15.3,12.3,15.2,22.2C191.9,189.7,180.9,200.1,166.4,200.1
					L166.4,200.1z M136.1,193.9h30.2c11.2,0,19.4-7.5,19.4-17.9s-8.2-17.9-19.4-17.9H139v-6.2h25.8c7.3,0,14.2-7.2,14.2-14.9
					c0-7.2-5.1-14.9-12.6-14.9h-30.2L136.1,193.9L136.1,193.9z"/>
				<path class="st5" d="M148.3,128.9c-1.7,0-3.1-1.4-3.1-3.1v-15c0-1.7,1.4-3.1,3.1-3.1c1.7,0,3.1,1.4,3.1,3.1v15
					C151.4,127.5,150,128.9,148.3,128.9L148.3,128.9z"/>
				<path class="st5" d="M160.3,128.9c-1.7,0-3.1-1.4-3.1-3.1v-15c0-1.7,1.4-3.1,3.1-3.1c1.7,0,3.1,1.4,3.1,3.1v15
					C163.4,127.5,162,128.9,160.3,128.9L160.3,128.9z"/>
				<path class="st5" d="M148.3,207.3c-1.7,0-3.1-1.4-3.1-3.1v-15c0-1.7,1.4-3.1,3.1-3.1c1.7,0,3.1,1.4,3.1,3.1v15
					C151.4,205.9,150,207.3,148.3,207.3L148.3,207.3z"/>
				<path class="st5" d="M160.3,207.3c-1.7,0-3.1-1.4-3.1-3.1v-15c0-1.7,1.4-3.1,3.1-3.1c1.7,0,3.1,1.4,3.1,3.1v15
					C163.4,205.9,162,207.3,160.3,207.3L160.3,207.3z"/>
			</g>
		</g>
	</g>
</g>
</svg>
